<svg width="1440" height="900" viewBox="0 0 1440 900" fill="none" xmlns="http://www.w3.org/2000/svg" role="img" aria-labelledby="title desc">
  <title id="title">NStep Game Editor workspace preview</title>
  <desc id="desc">A dark editor interface with top navigation, project controls, rig hierarchy, central canvas, properties, asset library, and motion timeline.</desc>
  <rect width="1440" height="900" fill="#0B0D14"/>
  <rect x="0" y="0" width="1440" height="52" fill="#111520" stroke="#222A3F"/>
  <text x="24" y="33" fill="#EDF2FF" font-family="Inter, Arial, sans-serif" font-size="18" font-weight="800" letter-spacing="2">NSTEP</text>
  <rect x="116" y="11" width="330" height="30" rx="8" fill="#0B0D14" stroke="#252D45"/>
  <rect x="122" y="15" width="86" height="22" rx="6" fill="#1E2438"/>
  <text x="144" y="31" fill="#EDF2FF" font-family="Inter, Arial, sans-serif" font-size="12" font-weight="700">Editor</text>
  <text x="232" y="31" fill="#4D5B78" font-family="Inter, Arial, sans-serif" font-size="12" font-weight="700">Rigging</text>
  <text x="320" y="31" fill="#4D5B78" font-family="Inter, Arial, sans-serif" font-size="12" font-weight="700">Cutter</text>
  <text x="476" y="31" fill="#4D5B78" font-family="Inter, Arial, sans-serif" font-size="12" font-weight="800">PROJECT</text>
  <rect x="550" y="12" width="56" height="28" rx="7" fill="#1E2438" stroke="#252D45"/><text x="566" y="30" fill="#B8C5E0" font-family="Inter, Arial, sans-serif" font-size="12" font-weight="700">New</text>
  <rect x="616" y="12" width="60" height="28" rx="7" fill="#1E2438" stroke="#252D45"/><text x="632" y="30" fill="#B8C5E0" font-family="Inter, Arial, sans-serif" font-size="12" font-weight="700">Load</text>
  <rect x="686" y="12" width="60" height="28" rx="7" fill="#4C8EF5"/><text x="702" y="30" fill="white" font-family="Inter, Arial, sans-serif" font-size="12" font-weight="800">Save</text>
  <text x="780" y="31" fill="#4D5B78" font-family="Inter, Arial, sans-serif" font-size="12" font-weight="800">EXPORT</text>
  <rect x="840" y="12" width="58" height="28" rx="7" fill="#1E2438" stroke="#252D45"/><text x="858" y="30" fill="#B8C5E0" font-family="Inter, Arial, sans-serif" font-size="12" font-weight="700">JSON</text>
  <rect x="908" y="12" width="70" height="28" rx="7" fill="#1E2438" stroke="#252D45"/><text x="924" y="30" fill="#B8C5E0" font-family="Inter, Arial, sans-serif" font-size="12" font-weight="700">Godot</text>
  <rect x="988" y="12" width="86" height="28" rx="7" fill="#1E2438" stroke="#252D45"/><text x="1004" y="30" fill="#B8C5E0" font-family="Inter, Arial, sans-serif" font-size="12" font-weight="700">Runtime</text>

  <rect x="0" y="52" width="220" height="548" fill="#111520" stroke="#222A3F"/>
  <text x="18" y="88" fill="#EDF2FF" font-family="Inter, Arial, sans-serif" font-size="15" font-weight="800">Rig Hierarchy</text>
  <rect x="18" y="110" width="184" height="38" rx="10" fill="#1E2438" stroke="#252D45"/><text x="38" y="134" fill="#EDF2FF" font-family="Inter, Arial, sans-serif" font-size="13">torso</text>
  <rect x="32" y="158" width="170" height="34" rx="10" fill="#181D2E" stroke="#252D45"/><text x="52" y="180" fill="#B8C5E0" font-family="Inter, Arial, sans-serif" font-size="13">head</text>
  <rect x="32" y="202" width="170" height="34" rx="10" fill="#181D2E" stroke="#252D45"/><text x="52" y="224" fill="#B8C5E0" font-family="Inter, Arial, sans-serif" font-size="13">arm_left</text>
  <rect x="32" y="246" width="170" height="34" rx="10" fill="#181D2E" stroke="#252D45"/><text x="52" y="268" fill="#B8C5E0" font-family="Inter, Arial, sans-serif" font-size="13">arm_right</text>
  <rect x="32" y="290" width="170" height="34" rx="10" fill="#181D2E" stroke="#252D45"/><text x="52" y="312" fill="#B8C5E0" font-family="Inter, Arial, sans-serif" font-size="13">legs</text>

  <rect x="220" y="52" width="948" height="548" fill="#0B0D14"/>
  <path d="M220 112H1168M220 172H1168M220 232H1168M220 292H1168M220 352H1168M220 412H1168M220 472H1168M220 532H1168M280 52V600M340 52V600M400 52V600M460 52V600M520 52V600M580 52V600M640 52V600M700 52V600M760 52V600M820 52V600M880 52V600M940 52V600M1000 52V600M1060 52V600M1120 52V600" stroke="white" opacity="0.045"/>
  <circle cx="694" cy="210" r="54" fill="#6FA8FF" stroke="white" stroke-opacity="0.26"/>
  <rect x="642" y="284" width="104" height="140" rx="42" fill="#8B7CF6" stroke="white" stroke-opacity="0.26"/>
  <rect x="588" y="294" width="34" height="142" rx="17" fill="#6FA8FF" transform="rotate(20 588 294)"/>
  <rect x="766" y="304" width="34" height="142" rx="17" fill="#6FA8FF" transform="rotate(-20 766 304)"/>
  <rect x="658" y="410" width="36" height="126" rx="18" fill="#6FA8FF" transform="rotate(8 658 410)"/>
  <rect x="710" y="410" width="36" height="126" rx="18" fill="#6FA8FF" transform="rotate(-8 710 410)"/>
  <rect x="244" y="552" width="64" height="30" rx="15" fill="#1A2540" stroke="#4C8EF5"/><text x="266" y="572" fill="#EDF2FF" font-family="Inter, Arial, sans-serif" font-size="12" font-weight="700">Grid</text>
  <rect x="318" y="552" width="72" height="30" rx="15" fill="#1E2438" stroke="#252D45"/><text x="338" y="572" fill="#B8C5E0" font-family="Inter, Arial, sans-serif" font-size="12" font-weight="700">Bones</text>
  <rect x="400" y="552" width="76" height="30" rx="15" fill="#1E2438" stroke="#252D45"/><text x="419" y="572" fill="#B8C5E0" font-family="Inter, Arial, sans-serif" font-size="12" font-weight="700">Names</text>
  <rect x="486" y="552" width="72" height="30" rx="15" fill="#1E2438" stroke="#252D45"/><text x="505" y="572" fill="#B8C5E0" font-family="Inter, Arial, sans-serif" font-size="12" font-weight="700">Onion</text>

  <rect x="1168" y="52" width="272" height="548" fill="#111520" stroke="#222A3F"/>
  <text x="1190" y="88" fill="#EDF2FF" font-family="Inter, Arial, sans-serif" font-size="15" font-weight="800">Properties</text>
  <rect x="1190" y="112" width="226" height="42" rx="10" fill="#181D2E" stroke="#252D45"/>
  <rect x="1190" y="168" width="226" height="42" rx="10" fill="#181D2E" stroke="#252D45"/>
  <rect x="1190" y="224" width="226" height="42" rx="10" fill="#181D2E" stroke="#252D45"/>
  <line x1="1168" y1="334" x2="1440" y2="334" stroke="#222A3F"/>
  <text x="1190" y="370" fill="#EDF2FF" font-family="Inter, Arial, sans-serif" font-size="15" font-weight="800">Asset Library</text>
  <rect x="1190" y="394" width="98" height="78" rx="12" fill="#181D2E" stroke="#252D45"/>
  <rect x="1318" y="394" width="98" height="78" rx="12" fill="#181D2E" stroke="#252D45"/>
  <rect x="1190" y="492" width="98" height="78" rx="12" fill="#181D2E" stroke="#252D45"/>

  <rect x="0" y="600" width="1440" height="300" fill="#111520" stroke="#222A3F"/>
  <text x="22" y="638" fill="#EDF2FF" font-family="Inter, Arial, sans-serif" font-size="15" font-weight="800">Motion Timeline</text>
  <rect x="22" y="666" width="210" height="70" rx="14" fill="#181D2E" stroke="#252D45"/>
  <rect x="262" y="666" width="1120" height="70" rx="14" fill="#0B0D14" stroke="#252D45"/>
  <g fill="#4C8EF5"><circle cx="330" cy="701" r="7"/><circle cx="430" cy="701" r="7"/><circle cx="610" cy="701" r="7"/><circle cx="820" cy="701" r="7"/><circle cx="1040" cy="701" r="7"/></g>
  <rect x="22" y="756" width="210" height="70" rx="14" fill="#181D2E" stroke="#252D45"/>
  <rect x="262" y="756" width="1120" height="70" rx="14" fill="#0B0D14" stroke="#252D45"/>
  <g fill="#3ECF8E"><circle cx="360" cy="791" r="7"/><circle cx="520" cy="791" r="7"/><circle cx="700" cy="791" r="7"/><circle cx="940" cy="791" r="7"/><circle cx="1180" cy="791" r="7"/></g>
</svg>
